<mxfile host="app.diagrams.net" agent="Mozilla/5.0 (Windows NT 10.0; Win64; x64) AppleWebKit/537.36 (KHTML, like Gecko) Chrome/129.0.0.0 Safari/537.36" version="24.7.17">
  <diagram name="Страница — 1" id="JOK1xQbKsb8GH7w-pVX7">
    <mxGraphModel grid="1" page="1" gridSize="10" guides="1" tooltips="1" connect="1" arrows="1" fold="1" pageScale="1" pageWidth="827" pageHeight="1169" math="0" shadow="0">
      <root>
        <mxCell id="0" />
        <mxCell id="1" parent="0" />
        <mxCell id="sybt0P4ooFRNjT5rKLIc-1" value="Исключением являются кампании, по типу Lookback. У продуктов будет одинаковый таргет в системе, но разный по факту. При наличии таких кампаний в списке - они игнорируются" style="text;html=1;align=center;verticalAlign=middle;whiteSpace=wrap;rounded=0;" vertex="1" parent="1">
          <mxGeometry x="70" y="40" width="220" height="120" as="geometry" />
        </mxCell>
        <mxCell id="sybt0P4ooFRNjT5rKLIc-7" style="edgeStyle=orthogonalEdgeStyle;rounded=0;orthogonalLoop=1;jettySize=auto;html=1;exitX=0.5;exitY=1;exitDx=0;exitDy=0;entryX=0.5;entryY=0;entryDx=0;entryDy=0;" edge="1" parent="1" source="sybt0P4ooFRNjT5rKLIc-2" target="sybt0P4ooFRNjT5rKLIc-3">
          <mxGeometry relative="1" as="geometry" />
        </mxCell>
        <mxCell id="sybt0P4ooFRNjT5rKLIc-2" value="Просмотр списка с дубликатами" style="ellipse;whiteSpace=wrap;html=1;" vertex="1" parent="1">
          <mxGeometry x="340" y="60" width="120" height="80" as="geometry" />
        </mxCell>
        <mxCell id="sybt0P4ooFRNjT5rKLIc-5" style="edgeStyle=orthogonalEdgeStyle;rounded=0;orthogonalLoop=1;jettySize=auto;html=1;exitX=0;exitY=0.5;exitDx=0;exitDy=0;entryX=0;entryY=0.5;entryDx=0;entryDy=0;" edge="1" parent="1" source="sybt0P4ooFRNjT5rKLIc-3" target="sybt0P4ooFRNjT5rKLIc-4">
          <mxGeometry relative="1" as="geometry" />
        </mxCell>
        <mxCell id="sybt0P4ooFRNjT5rKLIc-9" style="edgeStyle=orthogonalEdgeStyle;rounded=0;orthogonalLoop=1;jettySize=auto;html=1;exitX=1;exitY=0.5;exitDx=0;exitDy=0;entryX=0.5;entryY=0;entryDx=0;entryDy=0;" edge="1" parent="1" source="sybt0P4ooFRNjT5rKLIc-3" target="sybt0P4ooFRNjT5rKLIc-8">
          <mxGeometry relative="1" as="geometry" />
        </mxCell>
        <mxCell id="sybt0P4ooFRNjT5rKLIc-3" value="Есть мои кампании в списке?" style="rounded=0;whiteSpace=wrap;html=1;" vertex="1" parent="1">
          <mxGeometry x="340" y="170" width="120" height="60" as="geometry" />
        </mxCell>
        <mxCell id="sybt0P4ooFRNjT5rKLIc-4" value="Закончить работу со вкладкой" style="ellipse;whiteSpace=wrap;html=1;" vertex="1" parent="1">
          <mxGeometry x="346" y="550" width="136" height="90" as="geometry" />
        </mxCell>
        <mxCell id="sybt0P4ooFRNjT5rKLIc-6" value="Нет" style="text;html=1;align=center;verticalAlign=middle;whiteSpace=wrap;rounded=0;" vertex="1" parent="1">
          <mxGeometry x="290" y="170" width="60" height="30" as="geometry" />
        </mxCell>
        <mxCell id="sybt0P4ooFRNjT5rKLIc-15" style="edgeStyle=orthogonalEdgeStyle;rounded=0;orthogonalLoop=1;jettySize=auto;html=1;exitX=0.5;exitY=1;exitDx=0;exitDy=0;entryX=0.5;entryY=0;entryDx=0;entryDy=0;" edge="1" parent="1" source="sybt0P4ooFRNjT5rKLIc-8" target="sybt0P4ooFRNjT5rKLIc-11">
          <mxGeometry relative="1" as="geometry" />
        </mxCell>
        <mxCell id="sybt0P4ooFRNjT5rKLIc-8" value="Поиск этих кампаний в кабинете" style="rounded=0;whiteSpace=wrap;html=1;" vertex="1" parent="1">
          <mxGeometry x="482" y="240" width="120" height="60" as="geometry" />
        </mxCell>
        <mxCell id="sybt0P4ooFRNjT5rKLIc-10" value="Да" style="text;html=1;align=center;verticalAlign=middle;whiteSpace=wrap;rounded=0;" vertex="1" parent="1">
          <mxGeometry x="450" y="170" width="60" height="30" as="geometry" />
        </mxCell>
        <mxCell id="sybt0P4ooFRNjT5rKLIc-14" style="edgeStyle=orthogonalEdgeStyle;rounded=0;orthogonalLoop=1;jettySize=auto;html=1;exitX=0.5;exitY=1;exitDx=0;exitDy=0;entryX=0.5;entryY=0;entryDx=0;entryDy=0;" edge="1" parent="1" source="sybt0P4ooFRNjT5rKLIc-11" target="sybt0P4ooFRNjT5rKLIc-12">
          <mxGeometry relative="1" as="geometry" />
        </mxCell>
        <mxCell id="sybt0P4ooFRNjT5rKLIc-11" value="Проверка их статистики за 7 и за 30 дней" style="rounded=0;whiteSpace=wrap;html=1;" vertex="1" parent="1">
          <mxGeometry x="482" y="330" width="120" height="60" as="geometry" />
        </mxCell>
        <mxCell id="sybt0P4ooFRNjT5rKLIc-13" style="edgeStyle=orthogonalEdgeStyle;rounded=0;orthogonalLoop=1;jettySize=auto;html=1;exitX=0.5;exitY=1;exitDx=0;exitDy=0;entryX=1;entryY=0.5;entryDx=0;entryDy=0;" edge="1" parent="1" source="sybt0P4ooFRNjT5rKLIc-12" target="sybt0P4ooFRNjT5rKLIc-4">
          <mxGeometry relative="1" as="geometry" />
        </mxCell>
        <mxCell id="sybt0P4ooFRNjT5rKLIc-12" value="Поставить на паузу кампанию с худшей статистикой" style="rounded=0;whiteSpace=wrap;html=1;" vertex="1" parent="1">
          <mxGeometry x="482" y="420" width="120" height="60" as="geometry" />
        </mxCell>
      </root>
    </mxGraphModel>
  </diagram>
</mxfile>
